<svg xmlns="http://www.w3.org/2000/svg" xmlns:xlink="http://www.w3.org/1999/xlink" viewBox="0 0 1180 610" width="100%" height="100%" style="background-color: #030712; font-family: -apple-system, BlinkMacSystemFont, 'Segoe UI', Roboto, 'Helvetica Neue', Arial, sans-serif;">
  <defs>
    <!-- Background glows -->
    <radialGradient id="bg-glow-purple" cx="50%" cy="50%" r="50%">
      <stop offset="0%" stop-color="#7C3AED" stop-opacity="0.16" />
      <stop offset="100%" stop-color="#7C3AED" stop-opacity="0" />
    </radialGradient>
    <radialGradient id="bg-glow-cyan" cx="50%" cy="50%" r="50%">
      <stop offset="0%" stop-color="#22D3EE" stop-opacity="0.12" />
      <stop offset="100%" stop-color="#22D3EE" stop-opacity="0" />
    </radialGradient>
    <radialGradient id="bg-glow-emerald" cx="50%" cy="50%" r="50%">
      <stop offset="0%" stop-color="#10B981" stop-opacity="0.10" />
      <stop offset="100%" stop-color="#10B981" stop-opacity="0" />
    </radialGradient>

    <!-- Scanline Gradient -->
    <linearGradient id="scanline-grad" x1="0%" y1="0%" x2="0%" y2="100%">
      <stop offset="0%" stop-color="#22D3EE" stop-opacity="0" />
      <stop offset="50%" stop-color="#22D3EE" stop-opacity="0.22" />
      <stop offset="100%" stop-color="#22D3EE" stop-opacity="0" />
    </linearGradient>

    <!-- Glass Reflection Gradient -->
    <linearGradient id="glass-reflection" x1="0%" y1="0%" x2="100%" y2="100%">
      <stop offset="0%" stop-color="#ffffff" stop-opacity="0.12" />
      <stop offset="25%" stop-color="#ffffff" stop-opacity="0.0" />
      <stop offset="100%" stop-color="#ffffff" stop-opacity="0.0" />
    </linearGradient>

    <!-- Border Shimmer -->
    <linearGradient id="border-shimmer" x1="0%" y1="0%" x2="100%" y2="100%">
      <stop offset="0%" stop-color="#7C3AED" stop-opacity="0.8" />
      <stop offset="30%" stop-color="#22D3EE" stop-opacity="0.2" />
      <stop offset="70%" stop-color="#10B981" stop-opacity="0.2" />
      <stop offset="100%" stop-color="#7C3AED" stop-opacity="0.8" />
      <animate attributeName="x1" values="0%; 100%; 0%" dur="10s" repeatCount="indefinite" />
      <animate attributeName="y1" values="0%; 100%; 0%" dur="10s" repeatCount="indefinite" />
      <animate attributeName="x2" values="100%; 0%; 100%" dur="10s" repeatCount="indefinite" />
      <animate attributeName="y2" values="100%; 0%; 100%" dur="10s" repeatCount="indefinite" />
    </linearGradient>

    <!-- ASCII Portrait Gradient -->
    <linearGradient id="ascii-grad" x1="0%" y1="0%" x2="0%" y2="100%">
      <stop offset="0%" stop-color="#22D3EE">
        <animate attributeName="stop-color" values="#22D3EE; #7C3AED; #10B981; #22D3EE" dur="12s" repeatCount="indefinite" />
      </stop>
      <stop offset="100%" stop-color="#7C3AED">
        <animate attributeName="stop-color" values="#7C3AED; #10B981; #22D3EE; #7C3AED" dur="12s" repeatCount="indefinite" />
      </stop>
    </linearGradient>

    <!-- Right Accent Text Gradient -->
    <linearGradient id="accent-grad" x1="0%" y1="0%" x2="100%" y2="0%">
      <stop offset="0%" stop-color="#7C3AED" />
      <stop offset="50%" stop-color="#22D3EE" />
      <stop offset="100%" stop-color="#10B981" />
    </linearGradient>

    <!-- Soft Panel Shadows -->
    <filter id="panel-shadow-dark" x="-10%" y="-10%" width="120%" height="120%">
      <feDropShadow dx="0" dy="16" stdDeviation="24" flood-color="#000000" flood-opacity="0.5" />
    </filter>
    <filter id="panel-shadow-light" x="-10%" y="-10%" width="120%" height="120%">
      <feDropShadow dx="0" dy="10" stdDeviation="18" flood-color="#0f172a" flood-opacity="0.06" />
      <feDropShadow dx="0" dy="2" stdDeviation="4" flood-color="#0f172a" flood-opacity="0.03" />
    </filter>

    <!-- Noise Filter -->
    <filter id="noise-overlay" x="0%" y="0%" width="100%" height="100%">
      <feTurbulence type="fractalNoise" baseFrequency="0.8" numOctaves="3" result="noise" />
      <feColorMatrix type="matrix" values="1 0 0 0 0  0 1 0 0 0  0 0 1 0 0  0 0 0 0.03 0" />
      <feComposite operator="in" in2="SourceGraphic" result="monoNoise" />
      <feBlend mode="overlay" in="SourceGraphic" in2="monoNoise" />
    </filter>
  </defs>

  <style>
    @keyframes blink {
      0%, 49% { opacity: 1; }
      50%, 100% { opacity: 0; }
    }
    .cursor {
      animation: blink 0.9s infinite;
    }
    .pill {
      transition: all 0.3s cubic-bezier(0.4, 0, 0.2, 1);
      transform-box: fill-box;
      transform-origin: center;
      cursor: pointer;
    }
    .pill:hover {
      transform: scale(1.08);
      fill: #1E293B !important;
      stroke: #22D3EE !important;
      filter: drop-shadow(0 0 8px rgba(34, 211, 238, 0.4));
    }
    .exp-card-container {
      transition: all 0.3s cubic-bezier(0.4, 0, 0.2, 1);
      cursor: pointer;
    }
    .exp-card-container:hover {
      fill: rgba(255, 255, 255, 0.05);
      stroke: #22D3EE !important;
      filter: drop-shadow(0 0 8px rgba(34, 211, 238, 0.4));
    }
    .social-icon {
      transition: all 0.3s cubic-bezier(0.4, 0, 0.2, 1);
      transform-box: fill-box;
      transform-origin: center;
      cursor: pointer;
      fill: #94A3B8;
    }
    .social-icon:hover {
      transform: scale(1.22);
      fill: #22D3EE;
      filter: drop-shadow(0 0 8px rgba(34, 211, 238, 0.4));
    }
  </style>

  <!-- Noise Overlay Background -->
  <rect width="1180" height="610" rx="24" fill="#030712" />
  <rect width="1180" height="610" rx="24" fill="none" filter="url(#noise-overlay)" opacity="0.4" />

  <!-- Floating Glow Circles (Background) -->
  <g>
    <circle cx="200" cy="200" r="280" fill="url(#bg-glow-purple)" opacity="0.6">
      <animate attributeName="cx" values="200; 450; 200" dur="22s" repeatCount="indefinite" />
      <animate attributeName="cy" values="200; 400; 200" dur="26s" repeatCount="indefinite" />
    </circle>
    <circle cx="950" cy="450" r="250" fill="url(#bg-glow-cyan)" opacity="0.5">
      <animate attributeName="cx" values="950; 750; 950" dur="18s" repeatCount="indefinite" />
      <animate attributeName="cy" values="450; 250; 450" dur="22s" repeatCount="indefinite" />
    </circle>
    <circle cx="600" cy="150" r="220" fill="url(#bg-glow-emerald)" opacity="0.4">
      <animate attributeName="cx" values="600; 500; 600" dur="16s" repeatCount="indefinite" />
      <animate attributeName="cy" values="150; 300; 150" dur="20s" repeatCount="indefinite" />
    </circle>
  </g>

  <!-- Ambient Particles -->
  <g>
      <circle cx="101" cy="429" r="1.4" fill="#22D3EE" opacity="0.29">
    <animate attributeName="cx" values="101; 98; 101" dur="15s" repeatCount="indefinite" />
    <animate attributeName="cy" values="429; 419; 429" dur="16s" repeatCount="indefinite" />
    <animate attributeName="opacity" values="0.29; 0.59; 0.29" dur="4s" repeatCount="indefinite" />
  </circle>
  <circle cx="241" cy="161" r="0.8" fill="#7C3AED" opacity="0.32">
    <animate attributeName="cx" values="241; 235; 241" dur="21s" repeatCount="indefinite" />
    <animate attributeName="cy" values="161; 168; 161" dur="14s" repeatCount="indefinite" />
    <animate attributeName="opacity" values="0.32; 0.62; 0.32" dur="8s" repeatCount="indefinite" />
  </circle>
  <circle cx="909" cy="162" r="1.5" fill="#7C3AED" opacity="0.32">
    <animate attributeName="cx" values="909; 917; 909" dur="16s" repeatCount="indefinite" />
    <animate attributeName="cy" values="162; 174; 162" dur="26s" repeatCount="indefinite" />
    <animate attributeName="opacity" values="0.32; 0.62; 0.32" dur="4s" repeatCount="indefinite" />
  </circle>
  <circle cx="368" cy="160" r="1.1" fill="#10B981" opacity="0.36">
    <animate attributeName="cx" values="368; 369; 368" dur="13s" repeatCount="indefinite" />
    <animate attributeName="cy" values="160; 141; 160" dur="20s" repeatCount="indefinite" />
    <animate attributeName="opacity" values="0.36; 0.6599999999999999; 0.36" dur="4s" repeatCount="indefinite" />
  </circle>
  <circle cx="138" cy="423" r="1.4" fill="#22D3EE" opacity="0.27">
    <animate attributeName="cx" values="138; 147; 138" dur="13s" repeatCount="indefinite" />
    <animate attributeName="cy" values="423; 432; 423" dur="28s" repeatCount="indefinite" />
    <animate attributeName="opacity" values="0.27; 0.5700000000000001; 0.27" dur="7s" repeatCount="indefinite" />
  </circle>
  <circle cx="790" cy="345" r="1.6" fill="#10B981" opacity="0.4">
    <animate attributeName="cx" values="790; 782; 790" dur="13s" repeatCount="indefinite" />
    <animate attributeName="cy" values="345; 365; 345" dur="14s" repeatCount="indefinite" />
    <animate attributeName="opacity" values="0.4; 0.7; 0.4" dur="5s" repeatCount="indefinite" />
  </circle>
  <circle cx="256" cy="244" r="1.7" fill="#7C3AED" opacity="0.22">
    <animate attributeName="cx" values="256; 253; 256" dur="22s" repeatCount="indefinite" />
    <animate attributeName="cy" values="244; 248; 244" dur="27s" repeatCount="indefinite" />
    <animate attributeName="opacity" values="0.22; 0.52; 0.22" dur="6s" repeatCount="indefinite" />
  </circle>
  <circle cx="596" cy="409" r="1.0" fill="#7C3AED" opacity="0.17">
    <animate attributeName="cx" values="596; 580; 596" dur="22s" repeatCount="indefinite" />
    <animate attributeName="cy" values="409; 422; 409" dur="16s" repeatCount="indefinite" />
    <animate attributeName="opacity" values="0.17; 0.47; 0.17" dur="8s" repeatCount="indefinite" />
  </circle>
  <circle cx="499" cy="400" r="1.2" fill="#22D3EE" opacity="0.35">
    <animate attributeName="cx" values="499; 499; 499" dur="24s" repeatCount="indefinite" />
    <animate attributeName="cy" values="400; 424; 400" dur="14s" repeatCount="indefinite" />
    <animate attributeName="opacity" values="0.35; 0.6499999999999999; 0.35" dur="5s" repeatCount="indefinite" />
  </circle>
  <circle cx="185" cy="158" r="1.2" fill="#FFFFFF" opacity="0.37">
    <animate attributeName="cx" values="185; 201; 185" dur="17s" repeatCount="indefinite" />
    <animate attributeName="cy" values="158; 178; 158" dur="17s" repeatCount="indefinite" />
    <animate attributeName="opacity" values="0.37; 0.6699999999999999; 0.37" dur="7s" repeatCount="indefinite" />
  </circle>
  <circle cx="342" cy="185" r="1.4" fill="#10B981" opacity="0.33">
    <animate attributeName="cx" values="342; 330; 342" dur="23s" repeatCount="indefinite" />
    <animate attributeName="cy" values="185; 175; 185" dur="22s" repeatCount="indefinite" />
    <animate attributeName="opacity" values="0.33; 0.63; 0.33" dur="8s" repeatCount="indefinite" />
  </circle>
  <circle cx="867" cy="235" r="1.2" fill="#22D3EE" opacity="0.36">
    <animate attributeName="cx" values="867; 861; 867" dur="20s" repeatCount="indefinite" />
    <animate attributeName="cy" values="235; 218; 235" dur="21s" repeatCount="indefinite" />
    <animate attributeName="opacity" values="0.36; 0.6599999999999999; 0.36" dur="4s" repeatCount="indefinite" />
  </circle>
  </g>

  <!-- ======================== LEFT SIDE: CYBER TERMINAL & DASHBOARD ======================== -->
  <g filter="url(#panel-shadow-dark)">
    <!-- Panel Glass Base -->
    <rect x="24" y="24" width="428" height="562" rx="16" fill="#0F172A" fill-opacity="0.75" stroke="url(#border-shimmer)" stroke-width="1.5" />
    <!-- Diagonal Glass Shine -->
    <path d="M 24 24 L 280 24 L 24 280 Z" fill="url(#glass-reflection)" opacity="0.7" pointer-events="none" />
  </g>

  <!-- Left Panel Header -->
  <g>
    <!-- Window Controls -->
    <circle cx="48" cy="44" r="6" fill="#EF4444" opacity="0.8" />
    <circle cx="68" cy="44" r="6" fill="#F59E0B" opacity="0.8" />
    <circle cx="88" cy="44" r="6" fill="#10B981" opacity="0.8" />
    <!-- Title -->
    <text x="238" y="48" text-anchor="middle" font-family="monospace" font-size="12" font-weight="600" fill="#94A3B8">portrait.sh</text>
    <!-- Divider -->
    <line x1="24" y1="64" x2="452" y2="64" stroke="rgba(255, 255, 255, 0.08)" stroke-width="1" />
  </g>

  <!-- ASCII Art Content (Floating Group) -->
  <g>
    <animateTransform attributeName="transform" type="translate" values="0 0; 0 -4; 0 0" dur="8s" repeatCount="indefinite" keyTimes="0; 0.5; 1" keySplines="0.44 0 0.56 1; 0.44 0 0.56 1" calcMode="spline" />
    
    <!-- ASCII Portrait -->
    <g id="ascii-portrait" font-family="'Fira Code', Consolas, monospace" font-size="7.5" fill="url(#ascii-grad)" letter-spacing="0" xml:space="preserve" font-weight="bold">
        <text x="107" y="75.0" opacity="0">##***=----------------=+++=+*+++===-------<animate attributeName="opacity" to="1" dur="0.05s" begin="0.20s" fill="freeze" /></text>
  <text x="107" y="82.8" opacity="0">**+++-:---------=+++**###**#####*+=+=-----<animate attributeName="opacity" to="1" dur="0.05s" begin="0.24s" fill="freeze" /></text>
  <text x="107" y="90.6" opacity="0">=+===-::------=#%%%##%%%%%%%%#####+++==---<animate attributeName="opacity" to="1" dur="0.05s" begin="0.28s" fill="freeze" /></text>
  <text x="107" y="98.4" opacity="0">=====-.::---=#%%%%##%%%%##%%%#%%%#*****=-=<animate attributeName="opacity" to="1" dur="0.05s" begin="0.32s" fill="freeze" /></text>
  <text x="107" y="106.2" opacity="0">=====:..:::=%%%%%#%%%%##***+*++++*#%%%##==<animate attributeName="opacity" to="1" dur="0.05s" begin="0.36s" fill="freeze" /></text>
  <text x="107" y="114.0" opacity="0">-====-..::-%%%%%#%%%#*+=======---=*%%%%%+=<animate attributeName="opacity" to="1" dur="0.05s" begin="0.40s" fill="freeze" /></text>
  <text x="107" y="121.8" opacity="0">===---..:.+@@%**#**+-----------====#%%%#+=<animate attributeName="opacity" to="1" dur="0.05s" begin="0.44s" fill="freeze" /></text>
  <text x="107" y="129.6" opacity="0">===---...:#@@#=++*##*+====----=====*@@*+==<animate attributeName="opacity" to="1" dur="0.05s" begin="0.48s" fill="freeze" /></text>
  <text x="107" y="137.4" opacity="0">=====-...:###+=+*##%%%#*++*######*+##-:-==<animate attributeName="opacity" to="1" dur="0.05s" begin="0.52s" fill="freeze" /></text>
  <text x="107" y="145.2" opacity="0">=+===-....-++=-===+++++=--+##%##**=*: .-==<animate attributeName="opacity" to="1" dur="0.05s" begin="0.56s" fill="freeze" /></text>
  <text x="107" y="153.0" opacity="0">=====-.....-*==---------:--=-======+...--=<animate attributeName="opacity" to="1" dur="0.05s" begin="0.60s" fill="freeze" /></text>
  <text x="107" y="160.8" opacity="0">=+===-....::+#==-----=++=++=----=+=+. :---<animate attributeName="opacity" to="1" dur="0.05s" begin="0.64s" fill="freeze" /></text>
  <text x="107" y="168.6" opacity="0">=+===-...:::-##+=+***######*===+*+:=..:---<animate attributeName="opacity" to="1" dur="0.05s" begin="0.68s" fill="freeze" /></text>
  <text x="107" y="176.4" opacity="0">=++===:.:::::=%%*#*++++++**#%**#=:-=..:---<animate attributeName="opacity" to="1" dur="0.05s" begin="0.72s" fill="freeze" /></text>
  <text x="107" y="184.2" opacity="0">++++==:::::::=+#%%#++*##*+*#%%*:.:-=:.:---<animate attributeName="opacity" to="1" dur="0.05s" begin="0.76s" fill="freeze" /></text>
  <text x="107" y="192.0" opacity="0">++++==:..::--+*++#%%%#%%%%%%#*==+===..:---<animate attributeName="opacity" to="1" dur="0.05s" begin="0.80s" fill="freeze" /></text>
  <text x="107" y="199.8" opacity="0">+++++=--=+**##=++++**#####**++*%%##*+=----<animate attributeName="opacity" to="1" dur="0.05s" begin="0.84s" fill="freeze" /></text>
  <text x="107" y="207.6" opacity="0">+***###%%%##%%#+====+++++++**#%%%%###%#**+<animate attributeName="opacity" to="1" dur="0.05s" begin="0.88s" fill="freeze" /></text>
  <text x="107" y="215.4" opacity="0">#%%%%%%%%#%%%%%%#*++++++*##%%%%%%%%%##%%##<animate attributeName="opacity" to="1" dur="0.05s" begin="0.92s" fill="freeze" /></text>
  <text x="107" y="223.2" opacity="0">%%%%%%%%%%%%%%%%%%%%%%%%%%%%%%%%%%%%%##%##<animate attributeName="opacity" to="1" dur="0.05s" begin="0.96s" fill="freeze" /></text>
  <text x="107" y="231.0" opacity="0">%%%%%%%%%%%%%%%%%%%%%%%%%%%%%%%%%%%%%%%%%#<animate attributeName="opacity" to="1" dur="0.05s" begin="1.00s" fill="freeze" /></text>
  <text x="107" y="238.8" opacity="0">%%%@%%%%%%%%%%%%%%%%%%%%%%%%%%%%%%%%%%%%%%<animate attributeName="opacity" to="1" dur="0.05s" begin="1.04s" fill="freeze" /></text>
  <text x="107" y="246.6" opacity="0">@@%@%%@%%%%%%%%%%%%%%%%%%%%%@%%%%%%%%%%%%%<animate attributeName="opacity" to="1" dur="0.05s" begin="1.08s" fill="freeze" /></text>
  <text x="107" y="254.4" opacity="0">@@@@%@%%%%%%%%%%%%%%%%%%%%%%@@%@@%%@%@@@%@<animate attributeName="opacity" to="1" dur="0.05s" begin="1.12s" fill="freeze" /></text>
  <text x="107" y="262.2" opacity="0">@@@@@@%%%%@%%@%@@%%@@@@@@@@@@@@@@@@@@@@@@@<animate attributeName="opacity" to="1" dur="0.05s" begin="1.16s" fill="freeze" /></text>
  <text x="107" y="270.0" opacity="0">@@@@@@@%%@@%@@@@@%@@@@@@@@@@@@@@@@@@@@@@@%<animate attributeName="opacity" to="1" dur="0.05s" begin="1.20s" fill="freeze" /></text>
  <text x="107" y="277.8" opacity="0">%@@%@@@%@@@@@@@@@%@@@@@@@@@@@@@@@@@@@@@@%%<animate attributeName="opacity" to="1" dur="0.05s" begin="1.24s" fill="freeze" /></text>
  <text x="107" y="285.6" opacity="0">+###@@@%@@@@@@@@@@@@@@@@@@@@@@@@@@@@@%%@%%<animate attributeName="opacity" to="1" dur="0.05s" begin="1.28s" fill="freeze" /></text>
    </g>
  </g>

  <!-- ======================== MIDDLE: CYBER TERMINAL WINDOW ======================== -->
  <g>
    <!-- Terminal Window Base -->
    <rect x="44" y="305" width="388" height="122" rx="8" fill="rgba(0,0,0,0.15)" stroke="rgba(255, 255, 255, 0.08)" stroke-width="1.2" />
    
    <!-- Terminal content -->
    <g font-family="'Fira Code', Consolas, monospace" font-size="10" font-weight="bold">
      <!-- Row 1: prompt -->
      <g>
        <clipPath id="term-clip1">
          <rect x="58" y="312" width="0" height="16">
            <animate attributeName="width" to="80" dur="0.5s" begin="0.2s" fill="freeze" />
          </rect>
        </clipPath>
        <text x="58" y="324" fill="#10B981" clip-path="url(#term-clip1)">$ whoami</text>
      </g>
      <!-- Row 1 output -->
      <text x="58" y="336" fill="#F8FAFC" opacity="0">
        <animate attributeName="opacity" to="1" dur="0.1s" begin="0.7s" fill="freeze" />
        Aniket
      </text>

      <!-- Row 2: prompt -->
      <g>
        <clipPath id="term-clip2">
          <rect x="58" y="344" width="0" height="16">
            <animate attributeName="width" to="150" dur="0.8s" begin="0.9s" fill="freeze" />
          </rect>
        </clipPath>
        <text x="58" y="356" fill="#10B981" clip-path="url(#term-clip2)">$ specialization</text>
      </g>
      <!-- Row 2 output -->
      <text x="58" y="368" fill="#F8FAFC" opacity="0">
        <animate attributeName="opacity" to="1" dur="0.1s" begin="1.7s" fill="freeze" />
        LLMs • RAG • Graph ML
      </text>

      <!-- Row 3: prompt -->
      <g>
        <clipPath id="term-clip3">
          <rect x="58" y="376" width="0" height="16">
            <animate attributeName="width" to="180" dur="1.0s" begin="1.9s" fill="freeze" />
          </rect>
        </clipPath>
        <text x="58" y="388" fill="#10B981" clip-path="url(#term-clip3)">$ currently_building</text>
      </g>
      <!-- Row 3 output -->
      <text x="58" y="400" fill="#F8FAFC" opacity="0">
        <animate attributeName="opacity" to="1" dur="0.1s" begin="2.9s" fill="freeze" />
        Enterprise AI Products
      </text>

      <!-- Row 4: prompt -->
      <g>
        <clipPath id="term-clip4">
          <rect x="58" y="408" width="0" height="16">
            <animate attributeName="width" to="80" dur="0.5s" begin="3.1s" fill="freeze" />
          </rect>
        </clipPath>
        <text x="58" y="420" fill="#10B981" clip-path="url(#term-clip4)">$ status</text>
      </g>
      <!-- Row 4 output -->
      <text x="58" y="432" fill="#22D3EE" opacity="0">
        <animate attributeName="opacity" to="1" dur="0.1s" begin="3.6s" fill="freeze" />
        Ready to Collaborate
      </text>
      
      <!-- Blinking Terminal cursor at the end -->
      <rect x="192" y="422" width="6" height="11" fill="#22D3EE" opacity="0">
        <animate attributeName="opacity" values="1;0;1;0;1" dur="1s" repeatCount="indefinite" begin="3.8s" />
      </rect>
    </g>
  </g>

  <!-- ======================== BOTTOM: LIVE METRICS SYSTEM ======================== -->
  <g transform="translate(64, 458)">
    <clipPath id="clip-stat1">
      <rect x="0" y="-22" width="60" height="26" />
    </clipPath>
    <g clip-path="url(#clip-stat1)">
      <text x="0" y="0" font-size="22" font-weight="800" fill="url(#accent-grad)" font-family="-apple-system, sans-serif">
        0
        <tspan x="0" dy="24">2</tspan>
        <tspan x="0" dy="24">5</tspan>
        <tspan x="0" dy="24">8</tspan>
        <tspan x="0" dy="24">10+</tspan>
        <animateTransform attributeName="transform" type="translate" values="0 0; 0 -24; 0 -48; 0 -72; 0 -96" keyTimes="0; 0.25; 0.5; 0.75; 1" dur="1.5s" fill="freeze" begin="2.3s" calcMode="spline" keySplines="0.4 0 0.2 1; 0.4 0 0.2 1; 0.4 0 0.2 1; 0.4 0 0.2 1" />
      </text>
    </g>
    <text x="0" y="16" font-size="10" font-weight="bold" fill="#94A3B8">LLM Projects</text>
  </g>

  <g transform="translate(244, 458)">
    <clipPath id="clip-stat2">
      <rect x="0" y="-22" width="60" height="26" />
    </clipPath>
    <g clip-path="url(#clip-stat2)">
      <text x="0" y="0" font-size="22" font-weight="800" fill="url(#accent-grad)" font-family="-apple-system, sans-serif">
        0
        <tspan x="0" dy="24">1</tspan>
        <tspan x="0" dy="24">2</tspan>
        <tspan x="0" dy="24">3</tspan>
        <tspan x="0" dy="24">4+</tspan>
        <animateTransform attributeName="transform" type="translate" values="0 0; 0 -24; 0 -48; 0 -72; 0 -96" keyTimes="0; 0.25; 0.5; 0.75; 1" dur="1.5s" fill="freeze" begin="2.4s" calcMode="spline" keySplines="0.4 0 0.2 1; 0.4 0 0.2 1; 0.4 0 0.2 1; 0.4 0 0.2 1" />
      </text>
    </g>
    <text x="0" y="16" font-size="10" font-weight="bold" fill="#94A3B8">AI Products</text>
  </g>

  <g transform="translate(64, 514)">
    <clipPath id="clip-stat3">
      <rect x="0" y="-22" width="60" height="26" />
    </clipPath>
    <g clip-path="url(#clip-stat3)">
      <text x="0" y="0" font-size="22" font-weight="800" fill="url(#accent-grad)" font-family="-apple-system, sans-serif">
        0
        <tspan x="0" dy="24">1</tspan>
        <tspan x="0" dy="24">2</tspan>
        <tspan x="0" dy="24">3+</tspan>
        <animateTransform attributeName="transform" type="translate" values="0 0; 0 -24; 0 -48; 0 -72" keyTimes="0; 0.33; 0.66; 1" dur="1.2s" fill="freeze" begin="2.5s" calcMode="spline" keySplines="0.4 0 0.2 1; 0.4 0 0.2 1; 0.4 0 0.2 1" />
      </text>
    </g>
    <text x="0" y="16" font-size="10" font-weight="bold" fill="#94A3B8">Integrations</text>
  </g>

  <g transform="translate(244, 514)" opacity="0">
    <animate attributeName="opacity" to="1" dur="0.5s" begin="2.6s" fill="freeze" />
    <animateTransform attributeName="transform" type="translate" from="244 522" to="244 514" dur="0.5s" begin="2.6s" fill="freeze" />
    <text x="0" y="0" font-size="18" font-weight="800" fill="url(#accent-grad)" font-family="-apple-system, sans-serif">OIST</text>
    <text x="0" y="16" font-size="10" font-weight="bold" fill="#94A3B8">Research Lab</text>
  </g>

  <!-- Scanline sweep left panel -->
  <rect x="25" y="65" width="426" height="50" fill="url(#scanline-grad)" opacity="0.10" pointer-events="none">
    <animate attributeName="y" values="65; 290; 65" dur="7s" repeatCount="indefinite" />
  </rect>


  <!-- ======================== RIGHT SIDE: LIVING RESUME ======================== -->
  <g filter="url(#panel-shadow-dark)">
    <!-- Panel Glass Base -->
    <rect x="476" y="24" width="680" height="562" rx="16" fill="#0F172A" fill-opacity="0.75" stroke="url(#border-shimmer)" stroke-width="1.5" />
    <!-- Diagonal Glass Shine -->
    <path d="M 476 24 L 750 24 L 476 298 Z" fill="url(#glass-reflection)" opacity="0.7" pointer-events="none" />
  </g>

  <!-- Right Panel Header -->
  <g>
    <!-- Window Controls -->
    <circle cx="500" cy="44" r="6" fill="#EF4444" opacity="0.8" />
    <circle cx="520" cy="44" r="6" fill="#F59E0B" opacity="0.8" />
    <circle cx="540" cy="44" r="6" fill="#10B981" opacity="0.8" />
    <!-- Title -->
    <text x="816" y="48" text-anchor="middle" font-family="monospace" font-size="12" font-weight="600" fill="#94A3B8">portfolio.json</text>
    <!-- Divider -->
    <line x1="476" y1="64" x2="1156" y2="64" stroke="rgba(255, 255, 255, 0.08)" stroke-width="1" />
  </g>

  <!-- ======================== HEADER SECTION ======================== -->
  <g opacity="0">
    <animate attributeName="opacity" to="1" dur="0.5s" begin="0.2s" fill="freeze" />
    <animateTransform attributeName="transform" type="translate" from="0 8" to="0 0" dur="0.5s" begin="0.2s" fill="freeze" />
    <text x="520" y="102" fill="#F8FAFC" font-size="34" font-weight="800" letter-spacing="-0.8">ANIKET</text>
    <text x="520" y="123" fill="url(#accent-grad)" font-size="13" font-weight="700" letter-spacing="0.5">LLM Engineer • AI Researcher • Product Builder</text>
    <text x="520" y="144" fill="#F8FAFC" font-size="13.5" font-weight="500">Building AI systems that bridge research and real-world products.</text>
    <line x1="520" y1="160" x2="1110" y2="160" stroke="rgba(255, 255, 255, 0.08)" stroke-width="1" />
  </g>


  <!-- ======================== TWO-COLUMN GRID CONTENT ======================== -->
  
  <!-- ======================== COLUMN 1: CURRENTLY, EXPERIENCE & OPEN TO ======================== -->
  <g>
    <!-- 1. Currently Section (y = 180 to 280) -->
    <g opacity="0">
      <animate attributeName="opacity" to="1" dur="0.4s" begin="0.6s" fill="freeze" />
      <text x="520" y="193" fill="#F8FAFC" font-size="10.5" font-weight="800" letter-spacing="0.8">CURRENTLY</text>
      <circle cx="530" cy="216" r="3" fill="#22D3EE" />
      <text x="542" y="220" fill="#94A3B8" font-size="11.5" font-weight="500">Building AI Products @ Drivio</text>
      <circle cx="530" cy="237" r="3" fill="#22D3EE" />
      <text x="542" y="241" fill="#94A3B8" font-size="11.5" font-weight="500">Studying Financial Engineering @ WQU</text>
      <circle cx="530" cy="258" r="3" fill="#22D3EE" />
      <text x="542" y="262" fill="#94A3B8" font-size="11.5" font-weight="500">Exploring Graph Foundation Models</text>
    </g>

    <!-- 2. Experience Section (y = 300 to 420) -->
    <g>
      <text x="520" y="313" fill="#F8FAFC" font-size="10.5" font-weight="800" letter-spacing="0.8" opacity="0">
        <animate attributeName="opacity" to="1" dur="0.4s" begin="0.8s" fill="freeze" />
        EXPERIENCE
      </text>

      <!-- Card 1: Associate PM -->
      <g opacity="0" transform="translate(0, 8)">
        <animate attributeName="opacity" values="0; 1; 1; 0; 0; 0" keyTimes="0; 0.033; 0.3; 0.333; 0.334; 1" dur="12s" repeatCount="indefinite" />
        <animateTransform attributeName="transform" type="translate" values="0 8; 0 0; 0 0; 0 -8; 0 8; 0 8" keyTimes="0; 0.033; 0.3; 0.333; 0.334; 1" dur="12s" repeatCount="indefinite" />
        
        <rect class="exp-card-container" x="520" y="322" width="280" height="100" rx="10" fill="rgba(255, 255, 255, 0.02)" stroke="rgba(255, 255, 255, 0.08)" stroke-width="1.2" />
        <rect x="520" y="322" width="3" height="100" rx="1.5" fill="url(#accent-grad)" />

        <g transform="translate(536, 334)">
          <path d="M13 4h-2V3c0-.55-.45-1-1-1H6c-.55 0-1 .45-1 1v1H3c-.55 0-1 .45-1 1v8c0 .55.45 1 1 1h10c.55 0 1-.45 1-1V5c0-.55-.45-1-1-1zM6 3h4v1H6V3zm7 10H3V5h10v8z" fill="#22D3EE" />
        </g>

        <text x="558" y="344" fill="#F8FAFC" font-size="11.5" font-weight="bold">Associate Product Manager</text>
        <text x="558" y="358" fill="#22D3EE" font-size="10.5" font-weight="bold">Drivio Technologies</text>
        <text x="558" y="371" fill="#94A3B8" font-size="9.5" font-weight="600">Dec 2025 – Present</text>

        <text x="536" y="391" fill="#94A3B8" font-size="10">• Leading AI-powered FinTech product development</text>
        <text x="536" y="404" fill="#94A3B8" font-size="10">• Driving enterprise loan integrations</text>
        <text x="536" y="417" fill="#94A3B8" font-size="10">• Building LLM-enabled product features</text>
      </g>

      <!-- Card 2: AI Research Intern -->
      <g opacity="0" transform="translate(0, 8)">
        <animate attributeName="opacity" values="0; 0; 1; 1; 0; 0; 0" keyTimes="0; 0.333; 0.367; 0.633; 0.667; 0.668; 1" dur="12s" repeatCount="indefinite" />
        <animateTransform attributeName="transform" type="translate" values="0 8; 0 8; 0 0; 0 0; 0 -8; 0 8; 0 8" keyTimes="0; 0.333; 0.367; 0.633; 0.667; 0.668; 1" dur="12s" repeatCount="indefinite" />
        
        <rect class="exp-card-container" x="520" y="322" width="280" height="100" rx="10" fill="rgba(255, 255, 255, 0.02)" stroke="rgba(255, 255, 255, 0.08)" stroke-width="1.2" />
        <rect x="520" y="322" width="3" height="100" rx="1.5" fill="url(#accent-grad)" />

        <g transform="translate(536, 334)">
          <path d="M12.4 11.5L9 5.8V3h1v-1H6v1h1v2.8L3.6 11.5c-.5 1-.1 2 .9 2h11c.9 0 1.3-1 .9-2zm-1.8-.5H5.4L7 8.3h2l1.6 2.7z" fill="#22D3EE" />
        </g>

        <text x="558" y="344" fill="#F8FAFC" font-size="11.5" font-weight="bold">AI Research Intern</text>
        <text x="558" y="358" fill="#22D3EE" font-size="10.5" font-weight="bold">OIST Japan</text>
        <text x="558" y="371" fill="#94A3B8" font-size="9.5" font-weight="600">Jun 2025 – Feb 2026</text>

        <text x="536" y="391" fill="#94A3B8" font-size="10">• Graph Neural Networks</text>
        <text x="536" y="404" fill="#94A3B8" font-size="10">• Multi-LLM Evaluation</text>
        <text x="536" y="417" fill="#94A3B8" font-size="10">• Ecological AI Research</text>
      </g>

      <!-- Card 3: Business Analyst -->
      <g opacity="0" transform="translate(0, 8)">
        <animate attributeName="opacity" values="0; 0; 0; 1; 1; 0; 0" keyTimes="0; 0.667; 0.700; 0.967; 1.0; 1.0; 1" dur="12s" repeatCount="indefinite" />
        <animateTransform attributeName="transform" type="translate" values="0 8; 0 8; 0 8; 0 0; 0 0; 0 -8; 0 8" keyTimes="0; 0.667; 0.700; 0.967; 1.0; 1.0; 1" dur="12s" repeatCount="indefinite" />
        
        <rect class="exp-card-container" x="520" y="322" width="280" height="100" rx="10" fill="rgba(255, 255, 255, 0.02)" stroke="rgba(255, 255, 255, 0.08)" stroke-width="1.2" />
        <rect x="520" y="322" width="3" height="100" rx="1.5" fill="url(#accent-grad)" />

        <g transform="translate(536, 334)">
          <path d="M13 14H3c-.55 0-1-.45-1-1V3c0-.55.45-1 1-1s1 .45 1 1v9h9c.55 0 1 .45 1 1s-.45 1-1 1zm-1-3h-2c-.55 0-1-.45-1-1V6c0-.55.45-1 1-1s1 .45 1 1v4c0 .55-.45 1-1 1zm-4 0H6c-.55 0-1-.45-1-1V8c0-.55.45-1 1-1s1 .45 1 1v2c0 .55-.45 1-1 1z" fill="#22D3EE" />
        </g>

        <text x="558" y="344" fill="#F8FAFC" font-size="11.5" font-weight="bold">Business Analyst</text>
        <text x="558" y="358" fill="#22D3EE" font-size="10.5" font-weight="bold">Drivio Technologies</text>
        <text x="558" y="371" fill="#94A3B8" font-size="9.5" font-weight="600">Nov 2024 – Jun 2025</text>

        <text x="536" y="391" fill="#94A3B8" font-size="10">• LLM Workflow Automation</text>
        <text x="536" y="404" fill="#94A3B8" font-size="10">• Prompt Engineering</text>
        <text x="536" y="417" fill="#94A3B8" font-size="10">• AI Content Generation</text>
      </g>
    </g>

    <!-- 3. Open To Section (y = 440 to 510) -->
    <g opacity="0">
      <animate attributeName="opacity" to="1" dur="0.4s" begin="1.0s" fill="freeze" />
      <text x="520" y="453" fill="#F8FAFC" font-size="10.5" font-weight="800" letter-spacing="0.8">OPEN TO</text>
      <rect x="520" y="466" width="94" height="18" rx="4" fill="rgba(34, 211, 238, 0.08)" stroke="rgba(34, 211, 238, 0.2)" stroke-width="1" />
      <text x="567" y="478" fill="#22D3EE" font-size="9" font-weight="bold" text-anchor="middle">AI Engineering</text>
      <rect x="622" y="466" width="90" height="18" rx="4" fill="rgba(124, 58, 237, 0.08)" stroke="rgba(124, 58, 237, 0.2)" stroke-width="1" />
      <text x="667" y="478" fill="#7C3AED" font-size="9" font-weight="bold" text-anchor="middle">LLM Research</text>
      <rect x="520" y="490" width="86" height="18" rx="4" fill="rgba(16, 185, 129, 0.08)" stroke="rgba(16, 185, 129, 0.2)" stroke-width="1" />
      <text x="563" y="502" fill="#10B981" font-size="9" font-weight="bold" text-anchor="middle">ML Systems</text>
      <rect x="614" y="490" width="82" height="18" rx="4" fill="rgba(34, 211, 238, 0.08)" stroke="rgba(34, 211, 238, 0.2)" stroke-width="1" />
      <text x="655" y="502" fill="#22D3EE" font-size="9" font-weight="bold" text-anchor="middle">Applied AI</text>
    </g>
  </g>


  <!-- ======================== COLUMN 2: AI STACK, PROJECT CAROUSEL & RESEARCH INTERESTS ======================== -->
  <g>
    <!-- 1. AI Stack (y = 180 to 280) -->
    <g opacity="0">
      <animate attributeName="opacity" to="1" dur="0.4s" begin="0.9s" fill="freeze" />
      <text x="830" y="193" fill="#F8FAFC" font-size="10.5" font-weight="800" letter-spacing="0.8">AI STACK</text>
      <text x="830" y="218" fill="#F8FAFC" font-size="11.5" font-weight="700">AI: <tspan fill="#94A3B8" font-weight="normal">LLMs • RAG • AI Agents • MCP</tspan></text>
      <text x="830" y="242" fill="#F8FAFC" font-size="11.5" font-weight="700">ML: <tspan fill="#94A3B8" font-weight="normal">PyTorch • TensorFlow • Graph ML</tspan></text>
      <text x="830" y="266" fill="#F8FAFC" font-size="11.5" font-weight="700">Infra: <tspan fill="#94A3B8" font-weight="normal">Docker • GCP • Git • SQL</tspan></text>
    </g>

    <!-- 2. Featured Project Carousel (y = 300 to 420) -->
    <!-- Expanded to 8 projects in a 32s rotation (4s each) -->
    <text x="830" y="313" fill="#F8FAFC" font-size="10.5" font-weight="800" letter-spacing="0.8" opacity="0">
      <animate attributeName="opacity" to="1" dur="0.4s" begin="0.7s" fill="freeze" />
      FEATURED PROJECTS
    </text>

    <!-- Project 1: Prompt-Based BI -->
    <g opacity="0">
      <animate attributeName="opacity" values="0; 1; 1; 0; 0" keyTimes="0; 0.0125; 0.1125; 0.125; 1" dur="32s" repeatCount="indefinite" />
      <rect x="830" y="322" width="300" height="100" rx="10" fill="rgba(255, 255, 255, 0.02)" stroke="rgba(255, 255, 255, 0.08)" stroke-width="1.2" />
      <text x="846" y="342" fill="#F8FAFC" font-size="12" font-weight="bold">Prompt-Based Business Intelligence</text>
      <text x="846" y="358" fill="#22D3EE" font-size="10.5" font-weight="700">Natural Language Analytics</text>
      <text x="846" y="374" fill="#94A3B8" font-size="9.5" font-weight="600">LLMs • RAG • FastAPI • React • GCP • Docker</text>
      <text x="846" y="392" fill="#94A3B8" font-size="9.5">Natural Language → SQL → Dashboards.</text>
      <text x="846" y="407" fill="#94A3B8" font-size="9.5">Enterprise platform for business intelligence.</text>
    </g>

    <!-- Project 2: HATT -->
    <g opacity="0">
      <animate attributeName="opacity" values="0; 0; 1; 1; 0; 0" keyTimes="0; 0.125; 0.1375; 0.2375; 0.25; 1" dur="32s" repeatCount="indefinite" />
      <rect x="830" y="322" width="300" height="100" rx="10" fill="rgba(255, 255, 255, 0.02)" stroke="rgba(255, 255, 255, 0.08)" stroke-width="1.2" />
      <text x="846" y="342" fill="#F8FAFC" font-size="12" font-weight="bold">HATT</text>
      <text x="846" y="358" fill="#22D3EE" font-size="10.5" font-weight="700">Enterprise AI Assistant</text>
      <text x="846" y="374" fill="#94A3B8" font-size="9.5" font-weight="600">Python • AI Agents • LLMs • Automation</text>
      <text x="846" y="392" fill="#94A3B8" font-size="9.5">Multi-agent workflows and task orchestration.</text>
      <text x="846" y="407" fill="#94A3B8" font-size="9.5">Intelligent business automation hub.</text>
    </g>

    <!-- Project 3: AI Content Automation Suite -->
    <g opacity="0">
      <animate attributeName="opacity" values="0; 0; 1; 1; 0; 0" keyTimes="0; 0.25; 0.2625; 0.3625; 0.375; 1" dur="32s" repeatCount="indefinite" />
      <rect x="830" y="322" width="300" height="100" rx="10" fill="rgba(255, 255, 255, 0.02)" stroke="rgba(255, 255, 255, 0.08)" stroke-width="1.2" />
      <text x="846" y="342" fill="#F8FAFC" font-size="12" font-weight="bold">AI Content Automation Suite</text>
      <text x="846" y="358" fill="#22D3EE" font-size="10.5" font-weight="700">AI Content Automation</text>
      <text x="846" y="374" fill="#94A3B8" font-size="9.5" font-weight="600">LLMs • Prompt Engineering • AI Agents</text>
      <text x="846" y="392" fill="#94A3B8" font-size="9.5">Automated marketing content generation.</text>
      <text x="846" y="407" fill="#94A3B8" font-size="9.5">Engineered high-performance LLM workflows.</text>
    </g>

    <!-- Project 4: Government Services Platform -->
    <g opacity="0">
      <animate attributeName="opacity" values="0; 0; 1; 1; 0; 0" keyTimes="0; 0.375; 0.3875; 0.4875; 0.5; 1" dur="32s" repeatCount="indefinite" />
      <rect x="830" y="322" width="300" height="100" rx="10" fill="rgba(255, 255, 255, 0.02)" stroke="rgba(255, 255, 255, 0.08)" stroke-width="1.2" />
      <text x="846" y="342" fill="#F8FAFC" font-size="12" font-weight="bold">Government Services Platform</text>
      <text x="846" y="358" fill="#22D3EE" font-size="10.5" font-weight="700">Citizen Services Portal</text>
      <text x="846" y="374" fill="#94A3B8" font-size="9.5" font-weight="600">TypeScript • React • REST APIs</text>
      <text x="846" y="392" fill="#94A3B8" font-size="9.5">Modern digital platform with clean design.</text>
      <text x="846" y="407" fill="#94A3B8" font-size="9.5">Scalable architecture &amp; accessibility-first.</text>
    </g>

    <!-- Project 5: Enterprise Voice AI Assistant -->
    <g opacity="0">
      <animate attributeName="opacity" values="0; 0; 1; 1; 0; 0" keyTimes="0; 0.5; 0.5125; 0.6125; 0.625; 1" dur="32s" repeatCount="indefinite" />
      <rect x="830" y="322" width="300" height="100" rx="10" fill="rgba(255, 255, 255, 0.02)" stroke="rgba(255, 255, 255, 0.08)" stroke-width="1.2" />
      <text x="846" y="342" fill="#F8FAFC" font-size="12" font-weight="bold">Enterprise Voice Assistant</text>
      <text x="846" y="358" fill="#22D3EE" font-size="10.5" font-weight="700">Conversational Speech AI</text>
      <text x="846" y="374" fill="#94A3B8" font-size="9.5" font-weight="600">Speech AI • LLMs • Python</text>
      <text x="846" y="392" fill="#94A3B8" font-size="9.5">Conversational voice agent with low-latency.</text>
      <text x="846" y="407" fill="#94A3B8" font-size="9.5">Speech processing and intelligent tool execution.</text>
    </g>

    <!-- Project 6: Intelligent Invoice OCR -->
    <g opacity="0">
      <animate attributeName="opacity" values="0; 0; 1; 1; 0; 0" keyTimes="0; 0.625; 0.6375; 0.7375; 0.75; 1" dur="32s" repeatCount="indefinite" />
      <rect x="830" y="322" width="300" height="100" rx="10" fill="rgba(255, 255, 255, 0.02)" stroke="rgba(255, 255, 255, 0.08)" stroke-width="1.2" />
      <text x="846" y="342" fill="#F8FAFC" font-size="12" font-weight="bold">Intelligent Invoice OCR</text>
      <text x="846" y="358" fill="#22D3EE" font-size="10.5" font-weight="700">AI Document Intelligence</text>
      <text x="846" y="374" fill="#94A3B8" font-size="9.5" font-weight="600">OCR • Computer Vision • Python</text>
      <text x="846" y="392" fill="#94A3B8" font-size="9.5">Extracting structured data from invoices.</text>
      <text x="846" y="407" fill="#94A3B8" font-size="9.5">Custom OCR parsing and normalization layers.</text>
    </g>

    <!-- Project 7: AI News Intelligence Platform -->
    <g opacity="0">
      <animate attributeName="opacity" values="0; 0; 1; 1; 0; 0" keyTimes="0; 0.75; 0.7625; 0.8625; 0.875; 1" dur="32s" repeatCount="indefinite" />
      <rect x="830" y="322" width="300" height="100" rx="10" fill="rgba(255, 255, 255, 0.02)" stroke="rgba(255, 255, 255, 0.08)" stroke-width="1.2" />
      <text x="846" y="342" fill="#F8FAFC" font-size="12" font-weight="bold">News Intelligence Platform</text>
      <text x="846" y="358" fill="#22D3EE" font-size="10.5" font-weight="700">Real-Time News Aggregator</text>
      <text x="846" y="374" fill="#94A3B8" font-size="9.5" font-weight="600">LLMs • NLP • REST APIs</text>
      <text x="846" y="392" fill="#94A3B8" font-size="9.5">Real-time news collection, filtering &amp; summary.</text>
      <text x="846" y="407" fill="#94A3B8" font-size="9.5">Trend extraction and automated notifications.</text>
    </g>

    <!-- Project 8: AI SEO Optimization Agent -->
    <g opacity="0">
      <animate attributeName="opacity" values="0; 0; 1; 1; 0" keyTimes="0; 0.875; 0.8875; 0.9875; 1" dur="32s" repeatCount="indefinite" />
      <rect x="830" y="322" width="300" height="100" rx="10" fill="rgba(255, 255, 255, 0.02)" stroke="rgba(255, 255, 255, 0.08)" stroke-width="1.2" />
      <text x="846" y="342" fill="#F8FAFC" font-size="12" font-weight="bold">SEO Optimization Agent</text>
      <text x="846" y="358" fill="#22D3EE" font-size="10.5" font-weight="700">AI-Powered SEO</text>
      <text x="846" y="374" fill="#94A3B8" font-size="9.5" font-weight="600">LLMs • TypeScript • AI Agents</text>
      <text x="846" y="392" fill="#94A3B8" font-size="9.5">Automated content auditing &amp; suggestions.</text>
      <text x="846" y="407" fill="#94A3B8" font-size="9.5">Boosts search visibility using LLM heuristics.</text>
    </g>

    <!-- 3. Research Interests (y = 440 to 510) -->
    <g opacity="0">
      <animate attributeName="opacity" to="1" dur="0.4s" begin="1.1s" fill="freeze" />
      <text x="830" y="453" fill="#F8FAFC" font-size="10.5" font-weight="800" letter-spacing="0.8">RESEARCH INTERESTS</text>
      <text x="830" y="476" fill="#94A3B8" font-size="11.5" font-weight="500">Graph Foundation Models • LLM Evaluation</text>
      <text x="830" y="496" fill="#94A3B8" font-size="11.5" font-weight="500">AI Agents • Financial AI</text>
    </g>
  </g>


  <!-- ======================== FOOTER SECTION ======================== -->
  <g opacity="0">
    <animate attributeName="opacity" to="1" dur="0.5s" begin="1.2s" fill="freeze" />
    <line x1="520" y1="530" x2="1110" y2="530" stroke="rgba(255, 255, 255, 0.08)" stroke-width="1" />
    
    <!-- Tech Motto (Left) -->
    <text x="520" y="550" fill="#94A3B8" font-size="10.5" font-weight="bold" letter-spacing="0.5">Research • Build • Deploy • Iterate</text>
    
    <!-- Clickable Social Icons (Right) -->
    <g transform="translate(950, 538)">
      <a href="https://07anishu12.github.io" xlink:href="https://07anishu12.github.io" target="_blank">
        <path class="social-icon" d="M10 0C4.477 0 0 4.477 0 10s4.477 10 10 10 10-4.477 10-10S15.523 0 10 0zm6.9 6h-2.95c-.32-1.25-.78-2.45-1.37-3.56 1.83.68 3.36 1.95 4.32 3.56zM10 2.03c.73 1.18 1.3 2.52 1.67 3.97H8.33c.37-1.45.94-2.79 1.67-3.97zM2.1 10c0-.69.1-1.35.28-1.98h3.33c-.05.65-.08 1.31-.08 1.98s.03 1.33.08 1.98H2.38c-.18-.63-.28-1.29-.28-1.98zm.8 4h2.95c.32 1.25.78 2.45 1.37 3.56-1.83-.68-3.36-1.95-4.32-3.56zm2.95-8H2.9c.96-1.61 2.49-2.88 4.32-3.56-.59 1.11-1.05 2.31-1.37 3.56zM10 17.97c-.73-1.18-1.3-2.52-1.67-3.97h3.34c-.37 1.45-.94 2.79-1.67 3.97zM14.29 12c.05-.65.08-1.31.08-1.98s-.03-1.33-.08-1.98h3.33c.18.63.28 1.29.28 1.98s-.1 1.35-.28 1.98h-3.33zm-.5 5.56c.59-1.11 1.05-2.31 1.37-3.56h2.95c-.96 1.61-2.49 2.88-4.32 3.56z" transform="scale(0.85)" />
      </a>
      <a href="https://www.linkedin.com/in/aniket-thakur-a23a9b372/" xlink:href="https://www.linkedin.com/in/aniket-thakur-a23a9b372/" target="_blank">
        <path class="social-icon" d="M19 0h-18c-0.55 0-1 0.45-1 1v18c0 0.55 0.45 1 1 1h18c0.55 0 1-0.45 1-1v-18c0-0.55-0.45-1-1-1zM6 17h-3v-9h3v9zM4.5 6.75c-0.97 0-1.75-0.78-1.75-1.75s0.78-1.75 1.75-1.75 1.75 0.78 1.75 1.75-0.78 1.75-1.75 1.75zM17 17h-3v-4.75c0-1.13-0.02-2.58-1.57-2.58-1.57 0-1.81 1.23-1.81 2.5v4.83h-3v-9h2.88v1.23h0.04c0.4-0.76 1.38-1.56 2.84-1.56 3.04 0 3.6 2 3.6 4.6v4.73z" transform="translate(55, 0) scale(0.85)" />
      </a>
      <a href="https://github.com/07anishu12" xlink:href="https://github.com/07anishu12" target="_blank">
        <path class="social-icon" d="M10 0C4.477 0 0 4.484 0 10.017c0 4.425 2.865 8.18 6.839 9.504.5.092.682-.217.682-.483 0-.237-.008-.868-.013-1.703-2.782.605-3.369-1.343-3.369-1.343-.454-1.158-1.11-1.466-1.11-1.466-.908-.62.069-.608.069-.608 1.003.07 1.53 1.032 1.53 1.032.892 1.53 2.341 1.088 2.91.832.092-.647.35-1.088.636-1.338-2.22-.253-4.555-1.113-4.555-4.951 0-1.093.39-1.988 1.029-2.688-.103-.253-.446-1.272.098-2.65 0 0 .84-.27 2.75 1.026A9.564 9.564 0 0110 4.844c.85.004 1.705.115 2.504.337 1.909-1.296 2.747-1.027 2.747-1.027.546 1.379.202 2.398.1 2.651.64.7 1.028 1.595 1.028 2.688 0 3.848-2.339 4.695-4.566 4.943.359.309.678.92.678 1.855 0 1.338-.012 2.419-.012 2.747 0 .268.18.58.688.482A10.019 10.019 0 0020 10.017C20 4.484 15.522 0 10 0z" transform="translate(110, 0) scale(0.85)" />
      </a>
    </g>
  </g>

  <!-- Scanline sweep right panel -->
  <rect x="477" y="65" width="678" height="50" fill="url(#scanline-grad)" opacity="0.08" pointer-events="none">
    <animate attributeName="y" values="65; 520; 65" dur="9s" repeatCount="indefinite" />
  </rect>

  <!-- Shimmer Border for Canvas (Premium finish) -->
  <rect x="0.75" y="0.75" width="1178.5" height="608.5" rx="23.25" fill="none" stroke="url(#border-shimmer)" stroke-width="1.5" opacity="0.3" pointer-events="none" />
</svg>